<svg width="70" height="70" viewBox="0 0 70 70" fill="none" xmlns="http://www.w3.org/2000/svg">
<g id="doctor">
<circle id="Ellipse 2" cx="22" cy="64" r="4" fill="#71C5E8"/>
<path id="Vector 1" d="M27.5 43.5V34.5L42.5 35.5V43.5L48.5 45L35 61.5L22.5 45L27.5 43.5Z" fill="#449CD5"/>
<path id="Rectangle 1" d="M22 15C22 7.8203 27.8203 2 35 2C42.1797 2 48 7.8203 48 15V24C48 31.1797 42.1797 37 35 37C27.8203 37 22 31.1797 22 24V15Z" fill="#71C5E8"/>
<path id="Vector (Stroke)" fill-rule="evenodd" clip-rule="evenodd" d="M35.0583 2.91667C28.5867 2.91667 23.3333 8.17 23.3333 14.6417V23.8146C23.3333 27.8235 25.511 31.4328 28.589 33.7646C28.9529 34.0403 29.1667 34.4705 29.1667 34.9271V43.6333C29.1667 44.287 28.7317 44.8608 28.1023 45.0374L23.8783 46.2226L35 59.8158L46.1217 46.2226L41.8977 45.0375C41.2683 44.8609 40.8333 44.287 40.8333 43.6334V37.7878C39.071 38.6166 37.126 39.1218 35.0748 39.2272C34.2705 39.2686 33.5849 38.65 33.5436 37.8457C33.5023 37.0413 34.1208 36.3557 34.9252 36.3144C41.5329 35.9749 46.7833 30.5156 46.7833 23.8146V14.6417C46.7833 8.17 41.53 2.91667 35.0583 2.91667ZM43.7063 36.0296C47.353 33.2083 49.7 28.7886 49.7 23.8146V14.6417C49.7 6.55917 43.1408 0 35.0583 0C26.9758 0 20.4167 6.55917 20.4167 14.6417V23.8146C20.4167 28.634 22.8824 32.8445 26.25 35.6319V42.5279L10.2664 47.0125C10.231 47.0225 10.196 47.0337 10.1615 47.0463C4.05855 49.2685 0 55.0659 0 61.5562V68.5416C0 69.3471 0.652918 70 1.45833 70C2.26375 70 2.91667 69.3471 2.91667 68.5416V61.5562C2.91667 56.3102 6.18578 51.6218 11.109 49.8055L20.4166 47.1939L20.4167 58.5171C17.9007 59.1646 16.0417 61.4485 16.0417 64.1666C16.0417 67.3883 18.6534 70 21.875 70C25.0967 70 27.7084 67.3883 27.7084 64.1666C27.7084 61.4485 25.8493 59.1646 23.3334 58.5171L23.3333 50.1625L33.5416 62.6393L33.5417 68.5417C33.5417 69.3471 34.1946 70 35 70C35.8054 70 36.4583 69.3471 36.4583 68.5417L36.4583 62.6393L48.9744 47.3419C49.0439 47.2569 49.1023 47.1664 49.1496 47.0722L52.5 48.0123L52.5 51.0288C48.9761 52.6418 46.6667 56.1687 46.6667 60.1125V68.5416C46.6667 69.347 47.3196 69.9999 48.125 69.9999H50.0646C50.87 69.9999 51.5229 69.347 51.5229 68.5416C51.5229 67.7362 50.87 67.0833 50.0646 67.0833H49.5834V60.1125C49.5834 57.232 51.3229 54.6639 53.9584 53.5745C56.5938 54.6639 58.3333 57.232 58.3333 60.1125V67.0833H57.8521C57.0467 67.0833 56.3938 67.7362 56.3938 68.5416C56.3938 69.347 57.0467 69.9999 57.8521 69.9999H59.7917C60.5971 69.9999 61.25 69.347 61.25 68.5416V60.1125C61.25 56.1687 58.9406 52.6418 55.4167 51.0288L55.4166 48.8306L58.891 49.8055C63.8142 51.6218 67.0833 56.3103 67.0833 61.5563V68.5417C67.0833 69.3471 67.7362 70 68.5417 70C69.3471 70 70 69.3471 70 68.5417V61.5563C70 55.066 65.9414 49.2685 59.8385 47.0464C59.804 47.0338 59.769 47.0225 59.7336 47.0126L43.75 42.5279V36.3854C43.75 36.2627 43.7348 36.1435 43.7063 36.0296ZM21.875 61.25C20.2642 61.25 18.9584 62.5558 18.9584 64.1666C18.9584 65.7775 20.2642 67.0833 21.875 67.0833C23.4859 67.0833 24.7917 65.7775 24.7917 64.1666C24.7917 62.5558 23.4859 61.25 21.875 61.25ZM11.6666 62.7083C12.472 62.7083 13.125 63.3612 13.125 64.1667V68.5417C13.125 69.3471 12.472 70 11.6666 70C10.8612 70 10.2083 69.3471 10.2083 68.5417V64.1667C10.2083 63.3612 10.8612 62.7083 11.6666 62.7083Z" fill="#002855"/>
</g>
</svg>
