<svg width="34" height="54" viewBox="0 0 34 54" fill="none" xmlns="http://www.w3.org/2000/svg">
<g id="unit">
<path id="Vector" d="M32 17.2008C32 17.2125 32 17.2125 32 17.2242V17.1774C32 17.1891 32 17.2008 32 17.2008ZM17 2C8.71538 2 2 8.79236 2 17.2008C2 28.8532 13.2269 31.4648 17 44.1595C20.7615 31.4765 31.9769 28.8298 32 17.2008C31.9885 8.80407 25.2731 2 17 2Z" fill="#71C5E8"/>
<path id="Vector_2" d="M19.3079 14.882V10.1976H14.6925V14.882H10.0771V19.5664H14.6925V24.2508H19.3079V19.5664H23.9233V14.882H19.3079Z" fill="white"/>
<path id="Vector (Stroke)" fill-rule="evenodd" clip-rule="evenodd" d="M0.5 17.2008C0.5 7.98196 7.86904 0.5 17 0.5C26.1085 0.5 33.4667 7.9741 33.4999 17.16C33.5 17.1658 33.4995 17.3163 33.5 17.1774V17.1979L33.4999 17.2437M17 3.5C9.56173 3.5 3.5 9.60275 3.5 17.2008C3.5 22.4338 5.96124 25.6341 9.2073 29.294C9.46898 29.589 9.73575 29.8869 10.0061 30.1888C12.396 32.8575 15.0672 35.8403 16.9988 39.9519C18.9281 35.8387 21.5984 32.8513 23.9885 30.1775C24.256 29.8783 24.5199 29.583 24.7789 29.2905C28.0245 25.6253 30.4773 22.4652 30.4883 17.2437C30.4763 9.6552 24.4239 3.5 17 3.5ZM33.4999 17.2437C33.4742 23.6264 30.3259 27.5515 27.0249 31.2793C26.7707 31.5664 26.5156 31.8524 26.2603 32.1386C23.1759 35.5966 20.0722 39.0761 18.4381 44.586C18.2493 45.2225 17.6644 45.6593 17.0004 45.6595C16.3364 45.6596 15.7513 45.2233 15.5622 44.5868C13.9247 39.0774 10.8209 35.604 7.73722 32.1533C7.47868 31.864 7.22028 31.5748 6.9629 31.2846C3.65222 27.5519 0.5 23.6203 0.5 17.2008M33.4999 17.2437C33.4995 17.3048 33.4993 17.3398 33.4993 17.3333L33.4999 17.2437Z" fill="#002855"/>
<path id="Vector (Stroke)_2" fill-rule="evenodd" clip-rule="evenodd" d="M11.4418 41.0208C11.6101 41.8319 11.0889 42.6259 10.2777 42.7942C8.0107 43.2644 6.20763 43.9459 5.01272 44.7052C3.76458 45.4985 3.5 46.1525 3.5 46.5017C3.5 46.7502 3.62318 47.1492 4.19602 47.6779C4.77032 48.2079 5.68385 48.7542 6.93883 49.2442C9.43941 50.2206 12.996 50.8572 17 50.8572C21.004 50.8572 24.5606 50.2206 27.0612 49.2442C28.3161 48.7542 29.2297 48.2079 29.804 47.6779C30.3768 47.1492 30.5 46.7502 30.5 46.5017C30.5 46.1525 30.2354 45.4985 28.9873 44.7052C27.7924 43.9459 25.9893 43.2644 23.7223 42.7942C22.9111 42.6259 22.3899 41.8319 22.5582 41.0208C22.7265 40.2096 23.5204 39.6884 24.3316 39.8567C26.8069 40.3702 28.9903 41.1526 30.5964 42.1733C32.1492 43.1601 33.5 44.6024 33.5 46.5017C33.5 47.8693 32.7838 49.0102 31.8386 49.8825C30.8948 50.7534 29.6117 51.4689 28.1523 52.0388C25.224 53.1821 21.2806 53.8572 17 53.8572C12.7194 53.8572 8.77598 53.1821 5.84771 52.0388C4.38826 51.4689 3.10516 50.7534 2.16144 49.8825C1.21625 49.0102 0.5 47.8693 0.5 46.5017C0.5 44.6024 1.8508 43.1601 3.40362 42.1733C5.00968 41.1526 7.19315 40.3702 9.66841 39.8567C10.4796 39.6884 11.2735 40.2096 11.4418 41.0208Z" fill="#002855"/>
<path id="Vector (Stroke)_3" fill-rule="evenodd" clip-rule="evenodd" d="M13.1925 10.1977C13.1925 9.36927 13.8641 8.69769 14.6925 8.69769H19.3079C20.1363 8.69769 20.8079 9.36927 20.8079 10.1977V13.3821H23.9233C24.7517 13.3821 25.4233 14.0536 25.4233 14.8821V19.5665C25.4233 20.3949 24.7517 21.0665 23.9233 21.0665H20.8079V24.2508C20.8079 25.0793 20.1363 25.7508 19.3079 25.7508H14.6925C13.8641 25.7508 13.1925 25.0793 13.1925 24.2508V21.0665H10.0771C9.24872 21.0665 8.57715 20.3949 8.57715 19.5665V14.8821C8.57715 14.0536 9.24872 13.3821 10.0771 13.3821H13.1925V10.1977ZM16.1925 11.6977V14.8821C16.1925 15.7105 15.521 16.3821 14.6925 16.3821H11.5771V18.0665H14.6925C15.521 18.0665 16.1925 18.738 16.1925 19.5665V22.7508H17.8079V19.5665C17.8079 18.738 18.4795 18.0665 19.3079 18.0665H22.4233V16.3821H19.3079C18.4795 16.3821 17.8079 15.7105 17.8079 14.8821V11.6977H16.1925Z" fill="#002855"/>
</g>
</svg>
